# AST/ASF file generated using VICON BodyLanguage
# -----------------------------------------------
:version 1.10
:name VICON
:units
  mass 1.0
  length 0.45
  angle deg
:documentation
   .ast/.asf automatically generated from VICON data using
   VICON BodyBuilder and BodyLanguage model FoxedUp or BRILLIANT.MOD
:root
   order TX TY TZ RX RY RZ
   axis XYZ
   position 0 0 0  
   orientation 0 0 0 
:bonedata
  begin
     id 1 
     name lhipjoint
     direction 0.623529 -0.717805 0.309788 
     length 2.23224 
     axis 0 0 0  XYZ
  end
  begin
     id 2 
     name lfemur
     direction 0.34202 -0.939693 0  
     length 7.11402  
     axis 0 0 20  XYZ
    dof rx ry rz
    limits (-160.0 20.0)
           (-70.0 70.0)
           (-60.0 70.0)
  end
  begin
     id 3 
     name ltibia
     direction 0.34202 -0.939693 0   
     length 6.78496   
     axis 0 0 20   XYZ
    dof rx
    limits (-10.0 170.0)
  end
  begin
     id 4 
     name lfoot
     direction 0.125078 -0.343648 0.930732   
     length 1.84054   
     axis -90 7.62852e-016 20   XYZ
    dof rx rz
    limits (-45.0 90.0)
           (-70.0 20.0)
  end
  begin
     id 5 
     name ltoes
     direction 1.53565e-011 -4.21893e-011 1   
     length 0.916474   
     axis -90 7.62852e-016 20   XYZ
    dof rx
    limits (-90.0 20.0)
  end
  begin
     id 6 
     name rhipjoint
     direction -0.564688 -0.757748 0.327026   
     length 2.11457  
     axis 0 0 0  XYZ 
  end
  begin
     id 7 
     name rfemur
     direction -0.34202 -0.939693 0   
     length 7.14609   
     axis 0 0 -20   XYZ
    dof rx ry rz
    limits (-160.0 20.0)
           (-70.0 70.0)
           (-70.0 60.0)
  end
  begin
     id 8 
     name rtibia
     direction -0.34202 -0.939693 0   
     length 6.78101   
     axis 0 0 -20   XYZ
    dof rx
    limits (-10.0 170.0)
 end
 begin
     id 9 
     name rfoot
     direction -0.0992671 -0.272734 0.956955   
     length 1.96168  
     axis -90 -7.62852e-016 -20   XYZ
    dof rx rz
    limits (-45.0 90.0)
           (-20.0 70.0)
  end
  begin
     id 10 
     name rtoes
     direction -1.5356e-011 -4.21891e-011 1   
     length 0.982933   
     axis -90 -7.62852e-016 -20   XYZ
    dof rx
    limits (-90.0 20.0)
  end
  begin
     id 11 
     name lowerback
     direction -0.00596953 0.998668 0.0512524   
     length 1.87557   
     axis 0 0 0   XYZ
    dof rx ry rz
    limits (-20.0 45.0)
           (-30.0 30.0)
           (-30.0 30.0)
  end
  begin
     id 12 
     name upperback
     direction 0.00584879 0.999652 0.0257308   
     length 1.87883   
     axis 0 0 0   XYZ
    dof rx ry rz
    limits (-20.0 45.0)
           (-30.0 30.0)
           (-30.0 30.0)
  end
  begin
     id 13 
     name thorax
     direction 0.010104 0.999947 0.00178881   
     length 1.87779   
     axis 0 0 0   XYZ
    dof rx ry rz
    limits (-20.0 45.0)
           (-30.0 30.0)
           (-30.0 30.0)
  end
  begin
     id 14 
     name lowerneck
     direction 0.0120771 0.995934 -0.0892773   
     length 1.40897   
     axis 0 0 0   XYZ
    dof rx ry rz
    limits (-20.0 45.0)
           (-30.0 30.0)
           (-30.0 30.0)
  end
  begin
     id 15 
     name upperneck
     direction -0.030568 0.999465 -0.0116366   
     length 1.38661   
     axis 0 0 0   XYZ
    dof rx ry rz
    limits (-20.0 45.0)
           (-30.0 30.0)
           (-30.0 30.0)
  end
  begin
     id 16
     name head
     direction -0.0170715 0.999854 -0.00104426  
     length 1.47052  
     axis 0 0 0   XYZ
    dof rx ry rz
    limits (-20.0 45.0)
           (-30.0 30.0)
           (-30.0 30.0)
  end
  begin
     id 17 
     name lclavicle
     direction 0.977763 0.206143 0.038532  
     length 3.02424  
     axis 0 0 0   XYZ
    dof ry rz
    limits (-20.0 10.0)
           (0.0 20.0)
  end
  begin
     id 18 
     name lhumerus
     direction 1 -4.48965e-011 -2.62654e-027   
     length 4.68382   
     axis 180 -30 -90   XYZ
    dof rx ry rz
    limits (-60.0 90.0)
           (-90.0 90.0)
           (-90.0 90.0)
  end
  begin
     id 19
     name lradius
     direction 1 -4.48973e-011 -1.54954e-027   
     length 2.98124   
     axis 180 -30 -90   XYZ
    dof rx
    limits (-10.0 170.0)
  end
  begin
     id 20
     name lwrist
     direction 1 -4.48959e-011 7.20928e-028   
     length 1.49062   
     axis -5.52449e-016 90 90   XYZ
    dof ry
    limits (-180.0 0.0)
 end
  begin
     id 21 
     name lhand
     direction 1 -4.48971e-011 1.44186e-027   
     length 0.707595   
     axis -9.20027e-016 90 90   XYZ
    dof rx rz
    limits (-90.0 90.0)
           (-45.0 45.0)
  end
  begin
     id 22 
     name lfingers
     direction 1 -4.48985e-011 2.88371e-027   
     length 0.570481   
     axis -1.84005e-015 90 90   XYZ
    dof rx
    limits (0.0 90.0)
  end
  begin
     id 23
     name lthumb
     direction 0.707107 -6.34929e-011 0.707107   
     length 0.819101   
     axis -90 45 2.85299e-015   XYZ
    dof rx rz
    limits (-45.0 45.0)
           (-45.0 45.0)
  end
  begin
     id 24 
     name rclavicle
     direction -0.958661 0.284411 -0.00895327   
     length 3.11921  
     axis 0 0 0   XYZ 
    dof ry rz
    limits (-10.0 20.0)
           (-20.0 0.0)
  end
  begin
     id 25 
     name rhumerus
     direction -1 -4.48963e-011 -4.22193e-027  
     length 4.75876   
     axis 180 30 90   XYZ
    dof rx ry rz
    limits (-90.0 60.0)
           (-90.0 90.0)
           (-90.0 90.0)
  end
  begin
     id 26 
     name rradius
     direction -1 -4.48968e-011 -1.07616e-027   
     length 2.93293   
     axis 180 30 90   XYZ
    dof rx
    limits (-10.0 170.0)
  end
  begin
     id 27 
     name rwrist
     direction -1 -4.48965e-011 7.20928e-028   
     length 1.46647   
     axis -5.52449e-016 -90 -90   XYZ
    dof ry
    limits (-180.0 0.0)
  end
  begin
     id 28
     name rhand
     direction -1 -4.48971e-011 1.44186e-027   
     length 0.831748   
     axis -9.20027e-016 -90 -90   XYZ
    dof rx rz
    limits (-90.0 90.0)
           (-45.0 45.0)
  end
  begin
     id 29
     name rfingers
     direction -1 -4.48961e-011 2.88371e-027   
     length 0.670577   
     axis -1.84005e-015 -90 -90   XYZ
    dof rx
    limits (0.0 90.0)
  end
  begin
     id 30
     name rthumb
     direction -0.707107 -6.34929e-011 0.707107   
     length 0.962818   
     axis -90 -45 -2.85299e-015   XYZ
    dof rx rz
    limits (-45.0 45.0)
           (-45.0 45.0)
  end
:hierarchy
  begin
    root lhipjoint rhipjoint lowerback
    lhipjoint lfemur
    lfemur ltibia
    ltibia lfoot
    lfoot ltoes
    rhipjoint rfemur
    rfemur rtibia
    rtibia rfoot
    rfoot rtoes
    lowerback upperback
    upperback thorax
    thorax lowerneck lclavicle rclavicle
    lowerneck upperneck
    upperneck head
    lclavicle lhumerus
    lhumerus lradius
    lradius lwrist
    lwrist lhand lthumb
    lhand lfingers
    rclavicle rhumerus
    rhumerus rradius
    rradius rwrist
    rwrist rhand rthumb
    rhand rfingers
  end

#!OML:ASF E:\id_vita\Project 1\Capture day 1\Session 1\Female.ASF
:FULLY-SPECIFIED
:DEGREES
86
root -24.1012 16.3672 -0.587524 -23.2771 86.3889 -35.2259
lowerback -13.6089 -0.503337 -4.50543
upperback -5.18229 0.108071 1.00002
thorax 2.15867 0.200575 3.61219
lowerneck 6.60737 -1.14709 -8.83994
upperneck 0.673501 -0.599973 33.0483
head -0.942346 -0.288565 12.41
rclavicle -5.09386e-015 -1.98785e-015
rhumerus -33.0692 -17.5102 -84.2189
rradius 15.5399
rwrist 28.4599
rhand -13.1414 11.0772
rfingers 7.12502
rthumb 12.9569 -18.5005
lclavicle -5.09386e-015 -1.98785e-015
lhumerus -41.9495 39.5352 65.5534
lradius 11.154
lwrist -62.7174
lhand -4.00532 23.7641
lfingers 7.12502
lthumb 21.7489 52.5622
rfemur -19.7162 1.76899 20.6083
rtibia 26.3325
rfoot -14.8597 -8.97179
rtoes -11.7232
lfemur -19.9535 -7.85095 -18.3832
ltibia 28.2397
lfoot -26.8148 4.40316
ltoes 7.1658
87
root -24.109 16.3693 -0.584496 -22.5291 86.5934 -34.667
lowerback -13.6584 -0.565099 -4.71542
upperback -5.25688 0.0607995 0.969054
thorax 2.11013 0.183728 3.69166
lowerneck 6.57483 -1.19972 -8.80245
upperneck 0.613946 -0.648903 33.1119
head -0.94114 -0.312447 12.4297
rclavicle -1.78906e-015 -3.97569e-016
rhumerus -33.0221 -17.2298 -84.4203
rradius 15.5351
rwrist 28.1151
rhand -13.4044 10.9883
rfingers 7.12502
rthumb 12.7033 -18.6053
lclavicle -1.78906e-015 -3.97569e-016
lhumerus -42.0021 39.686 65.4106
lradius 11.1046
lwrist -62.9598
lhand -4.13231 23.6921
lfingers 7.12502
lthumb 21.6269 52.5043
rfemur -20.0192 1.49695 20.537
rtibia 26.4153
rfoot -14.6965 -9.17548
rtoes -13.4576
lfemur -20.2161 -7.66669 -18.4963
ltibia 28.2609
lfoot -26.8589 3.93824
ltoes 7.4778
88
root -24.0954 16.3618 -0.59199 -19.0415 86.2708 -31.0239
lowerback -13.7982 -0.392617 -4.71129
upperback -5.12405 0.291696 0.950217
thorax 2.30241 0.288012 3.70701
lowerneck 6.53632 -1.26076 -8.71527
upperneck 0.5523 -0.716633 33.0447
head -0.934327 -0.347586 12.3849
rclavicle 1.25234e-014 -1.70955e-014
rhumerus -32.9327 -16.2779 -84.9619
rradius 15.7131
rwrist 27.3494
rhand -14.0246 10.3486
rfingers 7.12502
rthumb 12.1054 -19.2812
lclavicle 1.25234e-014 -1.70955e-014
lhumerus -41.7665 39.3941 65.8011
lradius 11.1353
lwrist -62.6839
lhand -4.31361 23.8411
lfingers 7.12502
lthumb 21.4528 52.6733
rfemur -19.9892 1.28344 20.541
rtibia 26.5112
rfoot -14.5444 -9.17098
rtoes -16.2918
lfemur -19.9251 -8.0721 -18.597
ltibia 28.2545
lfoot -26.8654 4.76114
ltoes 7.43117
89
root -24.097 16.3607 -0.591581 -17.3866 86.353 -29.4208
lowerback -13.8447 -0.419638 -4.91402
upperback -5.12047 0.285643 0.947021
thorax 2.32963 0.286014 3.8184
lowerneck 6.50418 -1.28057 -8.70401
upperneck 0.53049 -0.740863 33.0194
head -0.928193 -0.359108 12.3722
rclavicle 7.95139e-016 -8.34896e-015
rhumerus -32.922 -17.1302 -84.3871
rradius 15.5554
rwrist 27.5562
rhand -13.3341 11.2418
rfingers 7.12502
rthumb 12.7711 -18.3476
lclavicle 7.95139e-016 -8.34896e-015
lhumerus -41.6311 39.1948 66.0696
lradius 11.1862
lwrist -62.544
lhand -4.37578 24.1367
lfingers 7.12502
lthumb 21.3931 52.9757
rfemur -20.1355 1.19402 20.4408
rtibia 26.644
rfoot -14.4592 -9.31491
rtoes -17.0134
lfemur -19.968 -8.13357 -18.7276
ltibia 28.2047
lfoot -26.879 4.88838
ltoes 7.21573
90
root -24.1005 16.3613 -0.592139 -18.3413 86.3156 -30.3779
lowerback -13.7947 -0.410999 -4.85329
upperback -5.14277 0.285745 0.974406
thorax 2.2797 0.287863 3.81203
lowerneck 6.5081 -1.27046 -8.72599
upperneck 0.549518 -0.728524 33.0677
head -0.926886 -0.350922 12.3965
rclavicle -9.91439e-015 -1.35174e-014
rhumerus -32.8829 -16.0833 -85.0265
rradius 15.7704
rwrist 26.9973
rhand -13.9854 10.131
rfingers 7.12502
rthumb 12.1432 -19.4966
lclavicle -9.91439e-015 -1.35174e-014
lhumerus -41.7593 39.3875 65.8675
lradius 11.1556
lwrist -62.832
lhand -4.3768 24.1676
lfingers 7.12502
lthumb 21.3921 53.0067
rfemur -20.1951 1.29368 20.5195
rtibia 26.7386
rfoot -14.4146 -9.37449
rtoes -16.7774
lfemur -19.9583 -8.07209 -18.647
ltibia 28.1512
lfoot -26.8237 4.90541
ltoes 7.07714
91
root -24.0982 16.3658 -0.597562 -15.7489 86.2233 -27.9273
lowerback -13.9427 -0.399082 -4.87411
upperback -5.21051 0.316553 0.952986
thorax 2.28493 0.306795 3.80731
lowerneck 6.52148 -1.23576 -8.78724
upperneck 0.659073 -0.709443 33.1135
head -0.90445 -0.333507 12.4276
rclavicle 9.54166e-015 4.37326e-015
rhumerus -33.0136 -17.2743 -84.205
rradius 15.4678
rwrist 27.8082
rhand -13.2824 11.6121
rfingers 7.12502
rthumb 12.821 -17.9742
lclavicle 9.54166e-015 4.37326e-015
lhumerus -41.9084 39.4943 65.6968
lradius 11.1321
lwrist -62.9729
lhand -4.21172 24.159
lfingers 7.12502
lthumb 21.5506 52.98
rfemur -20.3868 1.27902 20.3467
rtibia 26.8154
rfoot -14.5399 -9.00322
rtoes -15.4456
lfemur -20.0552 -8.12944 -18.7729
ltibia 28.0972
lfoot -26.7757 5.03656
ltoes 7.32018
92
root -24.0962 16.3714 -0.595852 -19.3848 86.3907 -31.3446
lowerback -13.7386 -0.445983 -4.77284
upperback -5.14773 0.225335 0.988194
thorax 2.25107 0.257958 3.77093
lowerneck 6.5503 -1.22514 -8.80874
upperneck 0.643742 -0.685419 33.1769
head -0.920105 -0.323978 12.4585
rclavicle 5.2181e-015 5.1684e-015
rhumerus -33.0519 -16.4985 -84.7193
rradius 15.7603
rwrist 27.2733
rhand -13.7203 10.6695
rfingers 7.12502
rthumb 12.3988 -18.9428
lclavicle 5.2181e-015 5.1684e-015
lhumerus -41.8849 39.4031 65.7167
lradius 11.1449
lwrist -63.0064
lhand -3.88295 24.3633
lfingers 7.12502
lthumb 21.8664 53.1477
rfemur -20.0357 1.26418 20.4936
rtibia 26.8017
rfoot -14.6944 -9.02785
rtoes -14.346
lfemur -19.8078 -8.00577 -18.6457
ltibia 28.1017
lfoot -26.9075 4.55572
ltoes 7.68663
